<?xml version="1.0" encoding="UTF-8"?>
<svg width="250px" height="250px" viewBox="0 0 250 250" version="1.1" xmlns="http://www.w3.org/2000/svg" xmlns:xlink="http://www.w3.org/1999/xlink">
    <title>icon/weather/14</title>
    <g id=".icon/.weather/.14" stroke="none" stroke-width="1" fill="none" fill-rule="evenodd">
        <g id=".weathericon" transform="translate(25.000000, 29.000000)">
            <g id="snowflakes" transform="translate(46.607194, 164.500381)" fill="#00B8EB">
                <g id="snowflake" transform="translate(13.392806, 15.000000) rotate(90.000000) translate(-13.392806, -15.000000) translate(-1.607194, 1.607194)">
                    <path d="M22.5,0.402424714 C23.9348779,1.23085184 24.4265033,3.06562306 23.5980762,4.50050093 L20.196,10.392 L27,10.3928058 C28.6568542,10.3928058 30,11.7359515 30,13.3928058 C30,15.04966 28.6568542,16.3928058 27,16.3928058 L20.196,16.392 L23.5980762,22.2851106 C24.4265033,23.7199885 23.9348779,25.5547597 22.5,26.3831868 C21.0651221,27.211614 19.2303509,26.7199885 18.4019238,25.2851106 L14.999,19.393 L11.5980762,25.2851106 C10.7696491,26.7199885 8.93487787,27.211614 7.5,26.3831868 C6.06512213,25.5547597 5.57349666,23.7199885 6.40192379,22.2851106 L9.803,16.392 L3,16.3928058 C1.34314575,16.3928058 2.02906125e-16,15.04966 0,13.3928058 C-2.02906125e-16,11.7359515 1.34314575,10.3928058 3,10.3928058 L9.803,10.392 L6.40192379,4.50050093 C5.57349666,3.06562306 6.06512213,1.23085184 7.5,0.402424714 C8.93487787,-0.42600241 10.7696491,0.0656230553 11.5980762,1.50050093 L14.999,7.392 L18.4019238,1.50050093 C19.2303509,0.0656230553 21.0651221,-0.42600241 22.5,0.402424714 Z" id="Combined-Shape"></path>
                </g>
                <g id="snowflake" transform="translate(68.392806, 15.000000) rotate(90.000000) translate(-68.392806, -15.000000) translate(53.392806, 1.607194)">
                    <path d="M22.5,0.402424714 C23.9348779,1.23085184 24.4265033,3.06562306 23.5980762,4.50050093 L20.196,10.392 L27,10.3928058 C28.6568542,10.3928058 30,11.7359515 30,13.3928058 C30,15.04966 28.6568542,16.3928058 27,16.3928058 L20.196,16.392 L23.5980762,22.2851106 C24.4265033,23.7199885 23.9348779,25.5547597 22.5,26.3831868 C21.0651221,27.211614 19.2303509,26.7199885 18.4019238,25.2851106 L14.999,19.393 L11.5980762,25.2851106 C10.7696491,26.7199885 8.93487787,27.211614 7.5,26.3831868 C6.06512213,25.5547597 5.57349666,23.7199885 6.40192379,22.2851106 L9.803,16.392 L3,16.3928058 C1.34314575,16.3928058 2.02906125e-16,15.04966 0,13.3928058 C-2.02906125e-16,11.7359515 1.34314575,10.3928058 3,10.3928058 L9.803,10.392 L6.40192379,4.50050093 C5.57349666,3.06562306 6.06512213,1.23085184 7.5,0.402424714 C8.93487787,-0.42600241 10.7696491,0.0656230553 11.5980762,1.50050093 L14.999,7.392 L18.4019238,1.50050093 C19.2303509,0.0656230553 21.0651221,-0.42600241 22.5,0.402424714 Z" id="Combined-Shape"></path>
                </g>
            </g>
            <path d="M37.5,150 L37.5006541,149.923185 C16.5735211,148.633016 0,131.251985 0,110 C0,90.9996259 13.2476882,75.0934152 31.0102157,71.0142167 C30.3463332,67.4442531 30,63.7625718 30,60 C30,26.862915 56.862915,0 90,0 C121.479208,0 147.296345,24.2422055 149.800858,55.0760618 C150.69459,55.0253465 151.594335,55 152.5,55 C178.733526,55 200,76.2664744 200,102.5 C200,127.894797 180.071636,148.635074 155.000423,149.935318 L155,150 L37.5,150 Z" id="Combined-Shape" fill="#D5D5D5"></path>
        </g>
    </g>
</svg>